<svg xmlns="http://www.w3.org/2000/svg" xmlns:xlink="http://www.w3.org/1999/xlink" width="500" zoomAndPan="magnify" viewBox="0 0 375 374.999991" height="500" preserveAspectRatio="xMidYMid meet" version="1.0"><defs><g/><clipPath id="532a62bee1"><path d="M 78 183 L 129.941406 183 L 129.941406 192 L 78 192 Z M 78 183 " clip-rule="nonzero"/></clipPath><clipPath id="5210a69ab3"><path d="M 88 163 L 129.941406 163 L 129.941406 172 L 88 172 Z M 88 163 " clip-rule="nonzero"/></clipPath><clipPath id="630745bad6"><path d="M 109 173 L 129.941406 173 L 129.941406 182 L 109 182 Z M 109 173 " clip-rule="nonzero"/></clipPath><clipPath id="f2e961a3d1"><path d="M 65.441406 183 L 75 183 L 75 192 L 65.441406 192 Z M 65.441406 183 " clip-rule="nonzero"/></clipPath><clipPath id="8eabb9cf30"><path d="M 90 193 L 129.941406 193 L 129.941406 202 L 90 202 Z M 90 193 " clip-rule="nonzero"/></clipPath><clipPath id="ecc1272c47"><path d="M 94 202 L 129.941406 202 L 129.941406 211 L 94 211 Z M 94 202 " clip-rule="nonzero"/></clipPath></defs><g clip-path="url(#532a62bee1)"><path fill="#f8f8f8" d="M 152.207031 183.402344 L 110.691406 183.402344 L 108.917969 186.46875 L 104.816406 186.46875 L 103.042969 183.402344 C 101.511719 183.402344 82.359375 183.402344 80.832031 183.402344 L 78.539062 187.375 L 80.832031 191.347656 C 82.359375 191.347656 101.511719 191.347656 103.042969 191.347656 L 104.816406 188.28125 L 108.917969 188.28125 L 110.691406 191.347656 L 152.207031 191.347656 C 152.664062 188.722656 152.664062 186.035156 152.207031 183.402344 Z M 152.207031 183.402344 " fill-opacity="1" fill-rule="nonzero"/></g><g clip-path="url(#5210a69ab3)"><path fill="#f8f8f8" d="M 95.210938 171.820312 L 96.984375 168.757812 L 101.085938 168.757812 L 102.859375 171.820312 L 146.628906 171.820312 C 138.402344 162.546875 129.175781 163.871094 118.050781 163.871094 L 102.859375 163.871094 L 101.085938 166.9375 L 96.984375 166.9375 L 95.210938 163.871094 L 90.625 163.871094 L 88.332031 167.84375 L 90.625 171.8125 L 95.210938 171.8125 Z M 95.210938 171.820312 " fill-opacity="1" fill-rule="nonzero"/></g><g clip-path="url(#630745bad6)"><path fill="#f8f8f8" d="M 122.628906 176.707031 L 118.523438 176.707031 L 116.75 173.640625 L 112.164062 173.640625 L 109.871094 177.613281 L 112.164062 181.585938 L 116.75 181.585938 L 118.523438 178.519531 L 122.628906 178.519531 L 124.402344 181.585938 L 151.820312 181.585938 C 151.082031 178.683594 149.796875 175.996094 148.085938 173.632812 L 124.402344 173.632812 Z M 122.628906 176.707031 " fill-opacity="1" fill-rule="nonzero"/></g><g clip-path="url(#f2e961a3d1)"><path fill="#f8f8f8" d="M 67.734375 183.402344 L 65.441406 187.375 L 67.734375 191.355469 L 72.328125 191.355469 L 74.621094 187.375 L 72.328125 183.402344 Z M 67.734375 183.402344 " fill-opacity="1" fill-rule="nonzero"/></g><path fill="#f8f8f8" d="M 96.777344 177.613281 L 99.070312 181.585938 L 103.664062 181.585938 L 105.957031 177.613281 L 103.664062 173.640625 L 99.070312 173.640625 Z M 96.777344 177.613281 " fill-opacity="1" fill-rule="nonzero"/><path fill="#f8f8f8" d="M 83.40625 202.929688 L 81.105469 206.90625 L 83.40625 210.878906 L 87.992188 210.878906 L 90.285156 206.90625 L 87.992188 202.929688 Z M 83.40625 202.929688 " fill-opacity="1" fill-rule="nonzero"/><g clip-path="url(#8eabb9cf30)"><path fill="#f8f8f8" d="M 103.042969 196.230469 L 98.9375 196.230469 L 97.164062 193.167969 L 92.578125 193.167969 L 90.285156 197.136719 L 92.578125 201.109375 L 97.164062 201.109375 L 98.9375 198.042969 L 103.042969 198.042969 L 104.816406 201.109375 L 148.078125 201.109375 C 149.789062 198.746094 151.074219 196.058594 151.8125 193.160156 C 137.449219 193.160156 119.171875 193.160156 104.808594 193.160156 Z M 103.042969 196.230469 " fill-opacity="1" fill-rule="nonzero"/></g><g clip-path="url(#ecc1272c47)"><path fill="#f8f8f8" d="M 114.796875 206 L 110.691406 206 L 108.917969 202.9375 C 104.78125 202.9375 100.636719 202.9375 96.496094 202.9375 L 94.203125 206.90625 L 96.496094 210.878906 C 100.636719 210.878906 104.773438 210.878906 108.917969 210.878906 L 110.691406 207.8125 L 114.796875 207.8125 L 116.570312 210.878906 C 128.316406 210.878906 138.191406 212.445312 146.628906 202.929688 L 116.570312 202.929688 Z M 114.796875 206 " fill-opacity="1" fill-rule="nonzero"/></g><g fill="#ffffff" fill-opacity="1"><g transform="translate(167.393886, 186.777938)"><g><path d="M 1.078125 -4.015625 C 6.140625 -3.734375 9.566406 -3.59375 11.359375 -3.59375 C 11.785156 -3.59375 12.125 -3.71875 12.375 -3.96875 C 12.625 -4.21875 12.75 -4.554688 12.75 -4.984375 L 12.75 -7.484375 L 6.375 -7.484375 C 4.4375 -7.484375 3.023438 -7.921875 2.140625 -8.796875 C 1.265625 -9.671875 0.828125 -11.078125 0.828125 -13.015625 L 0.828125 -13.84375 C 0.828125 -15.789062 1.265625 -17.203125 2.140625 -18.078125 C 3.023438 -18.953125 4.4375 -19.390625 6.375 -19.390625 L 16.09375 -19.390625 L 16.09375 -15.515625 L 7.484375 -15.515625 C 6.367188 -15.515625 5.8125 -14.957031 5.8125 -13.84375 L 5.8125 -13.296875 C 5.8125 -12.191406 6.367188 -11.640625 7.484375 -11.640625 L 12.46875 -11.640625 C 14.28125 -11.640625 15.609375 -11.210938 16.453125 -10.359375 C 17.304688 -9.515625 17.734375 -8.1875 17.734375 -6.375 L 17.734375 -4.984375 C 17.734375 -3.171875 17.304688 -1.835938 16.453125 -0.984375 C 15.609375 -0.140625 14.28125 0.28125 12.46875 0.28125 C 11.519531 0.28125 10.519531 0.257812 9.46875 0.21875 L 6.921875 0.109375 C 5.035156 0.015625 3.085938 -0.113281 1.078125 -0.28125 Z M 1.078125 -4.015625 "/></g></g></g><g fill="#ffffff" fill-opacity="1"><g transform="translate(191.487777, 186.777938)"><g><path d="M 0.828125 0 Z M 10.796875 0 L 0.828125 0 L 0.828125 -3.875 L 3.328125 -3.875 L 3.328125 -15.515625 L 0.828125 -15.515625 L 0.828125 -19.390625 L 10.796875 -19.390625 L 10.796875 -15.515625 L 8.3125 -15.515625 L 8.3125 -3.875 L 10.796875 -3.875 Z M 3.46875 -24.921875 L 8.171875 -24.921875 L 8.171875 -21.046875 L 3.46875 -21.046875 Z M 3.46875 -24.921875 "/></g></g></g><g fill="#ffffff" fill-opacity="1"><g transform="translate(208.658795, 186.777938)"><g><path d="M 18.5625 0 L 13.296875 0 L 6.65625 -11.640625 L 6.65625 0 L 1.65625 0 L 1.65625 -19.390625 L 6.921875 -19.390625 L 13.578125 -7.75 L 13.578125 -19.390625 L 18.5625 -19.390625 Z M 18.5625 0 "/></g></g></g><g fill="#ffffff" fill-opacity="1"><g transform="translate(234.414174, 186.777938)"><g><path d="M 5.125 0 L -0.28125 0 L 7.0625 -19.390625 L 12.609375 -19.390625 L 19.953125 0 L 14.546875 0 L 13.296875 -3.46875 L 6.375 -3.46875 Z M 7.625 -7.0625 L 12.046875 -7.0625 L 9.828125 -13.578125 Z M 7.625 -7.0625 "/></g></g></g><g fill="#ffffff" fill-opacity="1"><g transform="translate(259.615716, 186.777938)"><g><path d="M 18.5625 0 L 13.296875 0 L 6.65625 -11.640625 L 6.65625 0 L 1.65625 0 L 1.65625 -19.390625 L 6.921875 -19.390625 L 13.578125 -7.75 L 13.578125 -19.390625 L 18.5625 -19.390625 Z M 18.5625 0 "/></g></g></g><g fill="#ffffff" fill-opacity="1"><g transform="translate(172.633454, 207.12003)"><g><path d="M 3.046875 0 L 0.765625 0 L 0.765625 -8.90625 L 3.046875 -8.90625 L 3.046875 -5.40625 L 4.203125 -5.40625 L 6.1875 -8.90625 L 8.59375 -8.90625 L 6.109375 -4.515625 L 8.578125 0 L 6.171875 0 L 4.203125 -3.625 L 3.046875 -3.625 Z M 3.046875 0 "/></g></g></g><g fill="#ffffff" fill-opacity="1"><g transform="translate(188.201607, 207.12003)"><g><path d="M 2.359375 0 L -0.125 0 L 3.25 -8.90625 L 5.78125 -8.90625 L 9.15625 0 L 6.671875 0 L 6.109375 -1.59375 L 2.921875 -1.59375 Z M 3.5 -3.25 L 5.53125 -3.25 L 4.515625 -6.234375 Z M 3.5 -3.25 "/></g></g></g><g fill="#ffffff" fill-opacity="1"><g transform="translate(204.20206, 207.12003)"><g><path d="M -0.25 -8.90625 L 2.15625 -8.90625 L 4.265625 -4.578125 L 6.359375 -8.90625 L 8.78125 -8.90625 L 5.40625 -2.359375 L 5.40625 0 L 3.109375 0 L 3.109375 -2.359375 Z M -0.25 -8.90625 "/></g></g></g><g fill="#ffffff" fill-opacity="1"><g transform="translate(219.693914, 207.12003)"><g><path d="M 8.390625 -4.953125 L 6.609375 -1.78125 L 4.828125 -1.78125 L 3.046875 -4.953125 L 3.046875 0 L 0.765625 0 L 0.765625 -8.90625 L 3.171875 -8.90625 L 5.71875 -4.203125 L 8.265625 -8.90625 L 10.6875 -8.90625 L 10.6875 0 L 8.390625 0 Z M 8.390625 -4.953125 "/></g></g></g><g fill="#ffffff" fill-opacity="1"><g transform="translate(238.110203, 207.12003)"><g><path d="M 2.359375 0 L -0.125 0 L 3.25 -8.90625 L 5.78125 -8.90625 L 9.15625 0 L 6.671875 0 L 6.109375 -1.59375 L 2.921875 -1.59375 Z M 3.5 -3.25 L 5.53125 -3.25 L 4.515625 -6.234375 Z M 3.5 -3.25 "/></g></g></g><g fill="#ffffff" fill-opacity="1"><g transform="translate(254.110657, 207.12003)"><g><path d="M 7.5 -7.125 L 3.046875 -1.78125 L 7.5 -1.78125 L 7.5 0 L 0.25 0 L 0.25 -1.78125 L 4.703125 -7.125 L 0.25 -7.125 L 0.25 -8.90625 L 7.5 -8.90625 Z M 7.5 -7.125 "/></g></g></g><path stroke-linecap="round" transform="matrix(0, 0.75, -0.75, 0, 131.314947, 159.251942)" fill="none" stroke-linejoin="miter" d="M 1.497411 1.498055 L 73.830749 1.498055 " stroke="#f8f8f8" stroke-width="3" stroke-opacity="1" stroke-miterlimit="4"/></svg>